<svg width="200" height="200" viewBox="0 0 200 200" xmlns="http://www.w3.org/2000/svg">
  <defs>
    <radialGradient id="grad1" cx="50%" cy="50%" r="50%">
      <stop offset="0%" style="stop-color:#14b8a6;stop-opacity:1" />
      <stop offset="100%" style="stop-color:#0ea5e9;stop-opacity:1" />
    </radialGradient>
  </defs>
  <circle cx="100" cy="100" r="95" fill="url(#grad1)" />
  <g stroke="#ffffff" stroke-width="6" fill="none" stroke-linecap="round" transform="rotate(20,100,100)">
    <path d="M100 40
             C140 50,160 80,150 110
             C160 120,160 150,130 160
             C120 180,90 180,70 160
             C50 150,50 120,60 100
             C50 80,60 50,90 40
             Z" opacity="0.85" />
    <path d="M110 50
             C145 60,155 90,140 115
             C150 125,145 150,120 155
             C105 170,80 170,65 150
             C55 140,55 115,70 95
             C65 75,80 55,105 50
             Z" opacity="0.6" />
  </g>
  <text x="100" y="185" text-anchor="middle" font-family="Poppins, sans-serif"
        font-size="20" fill="#ffffff" letter-spacing="1">LochatAi</text>
</svg>
